<svg xmlns="http://www.w3.org/2000/svg" width="32" height="32" viewBox="0 0 32 32" fill="none">
  <rect width="32" height="32" rx="6" fill="#0070f3" />
  <path d="M23 14.5C23 12.01 20.99 10 18.5 10C16.52 10 14.83 11.27 14.25 13.01C13.87 12.73 13.4 12.5 12.88 12.5C11.84 12.5 11 13.34 11 14.38C11 14.71 11.09 15.02 11.24 15.29C10.5 15.77 10 16.6 10 17.5C10 19.16 11.34 20.5 13 20.5H23C24.66 20.5 26 19.16 26 17.5C26 15.84 24.66 14.5 23 14.5Z" fill="white" />
  <path d="M13.5 25.5L15.5 22.5H11.5L13.5 19.5" stroke="white" stroke-width="1.5" stroke-linecap="round" stroke-linejoin="round" />
  <path d="M18.5 25.5L20.5 22.5H16.5L18.5 19.5" stroke="white" stroke-width="1.5" stroke-linecap="round" stroke-linejoin="round" />
</svg> 